# Blender v2.75 (sub 0) OBJ File: ''
# www.blender.org
mtllib cube_rounded.mtl
o Cube
v 1.000000 0.081310 -0.918690
v 0.918690 0.000000 -0.918690
v 0.918690 0.081310 -1.000000
v 0.989137 0.040708 -0.918690
v 0.989137 0.081310 -0.959292
v 0.978586 0.042427 -0.957573
v 0.918690 0.010863 -0.959292
v 0.959292 0.010863 -0.918690
v 0.957573 0.021414 -0.957573
v 0.959292 0.081310 -0.989137
v 0.918690 0.040708 -0.989137
v 0.957573 0.042427 -0.978585
v 1.000000 0.081310 0.918690
v 0.918690 0.081310 1.000000
v 0.918690 0.000000 0.918690
v 0.989137 0.081310 0.959292
v 0.989137 0.040708 0.918690
v 0.978586 0.042427 0.957573
v 0.918690 0.040708 0.989137
v 0.959292 0.081310 0.989137
v 0.957573 0.042427 0.978586
v 0.959292 0.010863 0.918690
v 0.918690 0.010863 0.959292
v 0.957573 0.021414 0.957573
v -0.918690 0.081310 1.000000
v -1.000000 0.081310 0.918690
v -0.918690 0.000000 0.918690
v -0.959292 0.081310 0.989137
v -0.918690 0.040708 0.989137
v -0.957573 0.042427 0.978585
v -0.989137 0.040708 0.918690
v -0.989137 0.081310 0.959291
v -0.978586 0.042427 0.957573
v -0.918690 0.010863 0.959291
v -0.959292 0.010863 0.918690
v -0.957573 0.021414 0.957573
v -0.918690 0.081310 -1.000000
v -0.918690 0.000000 -0.918690
v -1.000000 0.081310 -0.918690
v -0.918690 0.040708 -0.989138
v -0.959291 0.081310 -0.989138
v -0.957573 0.042427 -0.978586
v -0.959291 0.010863 -0.918690
v -0.918690 0.010863 -0.959292
v -0.957573 0.021414 -0.957574
v -0.989137 0.081310 -0.959292
v -0.989137 0.040708 -0.918690
v -0.978585 0.042427 -0.957574
v 0.918690 1.918690 -0.999999
v 0.918690 2.000000 -0.918689
v 1.000000 1.918690 -0.918689
v 0.918690 1.959292 -0.989137
v 0.959292 1.918690 -0.989137
v 0.957574 1.957573 -0.978585
v 0.959292 1.989137 -0.918689
v 0.918690 1.989137 -0.959291
v 0.957574 1.978586 -0.957573
v 0.989138 1.918690 -0.959291
v 0.989138 1.959292 -0.918689
v 0.978586 1.957573 -0.957573
v 0.918689 1.918690 1.000001
v 0.999999 1.918690 0.918691
v 0.918689 2.000000 0.918690
v 0.959291 1.918690 0.989138
v 0.918689 1.959292 0.989138
v 0.957573 1.957573 0.978586
v 0.989137 1.959292 0.918691
v 0.989137 1.918690 0.959292
v 0.978585 1.957573 0.957574
v 0.918689 1.989137 0.959292
v 0.959291 1.989137 0.918691
v 0.957573 1.978586 0.957574
v -1.000000 1.918690 0.918690
v -0.918690 1.918690 1.000000
v -0.918690 2.000000 0.918690
v -0.989138 1.918690 0.959291
v -0.989138 1.959292 0.918690
v -0.978586 1.957573 0.957573
v -0.918690 1.959292 0.989137
v -0.959292 1.918690 0.989137
v -0.957574 1.957573 0.978585
v -0.959292 1.989137 0.918690
v -0.918690 1.989137 0.959291
v -0.957574 1.978586 0.957573
v -1.000000 1.918690 -0.918690
v -0.918690 2.000000 -0.918690
v -0.918690 1.918690 -1.000000
v -0.989137 1.959292 -0.918690
v -0.989137 1.918690 -0.959292
v -0.978585 1.957573 -0.957573
v -0.918690 1.989137 -0.959292
v -0.959291 1.989137 -0.918690
v -0.957573 1.978586 -0.957573
v -0.959291 1.918690 -0.989137
v -0.918690 1.959292 -0.989137
v -0.957573 1.957573 -0.978586
vt 0.249312 0.249312
vt 0.750688 0.249312
vt 0.750688 0.750688
vt 0.249312 0.750688
vn 0.000000 0.000000 -1.000000
vn -0.000000 0.000000 1.000000
vn -1.000000 -0.000000 -0.000000
vn 0.000000 1.000000 0.000000
vn 1.000000 0.000000 0.000000
vn 0.928000 -0.263500 -0.263500
vn 0.690100 -0.690100 -0.217800
vn 0.263500 -0.928000 -0.263500
vn 0.217800 -0.690100 -0.690100
vn 0.263500 -0.263500 -0.928000
vn 0.690100 -0.217800 -0.690100
vn 0.577400 -0.577300 -0.577400
vn 0.928000 -0.263500 0.263500
vn 0.690100 -0.217800 0.690100
vn 0.263500 -0.263500 0.928000
vn 0.217800 -0.690100 0.690100
vn 0.263500 -0.928000 0.263500
vn 0.690100 -0.690100 0.217800
vn 0.577300 -0.577300 0.577400
vn -0.263500 -0.263500 0.928000
vn -0.690100 -0.217800 0.690100
vn -0.928000 -0.263500 0.263500
vn -0.690100 -0.690100 0.217800
vn -0.263500 -0.928000 0.263500
vn -0.217800 -0.690100 0.690100
vn -0.577400 -0.577400 0.577300
vn -0.263500 -0.263500 -0.928000
vn -0.217800 -0.690100 -0.690100
vn -0.263500 -0.928000 -0.263500
vn -0.690100 -0.690100 -0.217800
vn -0.928000 -0.263500 -0.263500
vn -0.690100 -0.217800 -0.690100
vn -0.577400 -0.577400 -0.577300
vn 0.263500 0.263500 -0.928000
vn 0.217800 0.690100 -0.690100
vn 0.263500 0.928000 -0.263500
vn 0.690100 0.690100 -0.217800
vn 0.928000 0.263500 -0.263500
vn 0.690100 0.217800 -0.690100
vn 0.577300 0.577400 -0.577400
vn 0.263500 0.263500 0.928000
vn 0.690100 0.217800 0.690100
vn 0.928000 0.263500 0.263500
vn 0.690100 0.690100 0.217800
vn 0.263500 0.928000 0.263500
vn 0.217800 0.690100 0.690100
vn 0.577300 0.577400 0.577400
vn -0.928000 0.263500 0.263500
vn -0.690100 0.217800 0.690100
vn -0.263500 0.263500 0.928000
vn -0.217800 0.690100 0.690100
vn -0.263500 0.928000 0.263500
vn -0.690100 0.690100 0.217800
vn -0.577400 0.577400 0.577400
vn -0.928000 0.263500 -0.263500
vn -0.690100 0.690100 -0.217800
vn -0.263500 0.928000 -0.263500
vn -0.217800 0.690100 -0.690100
vn -0.263500 0.263500 -0.928000
vn -0.690100 0.217800 -0.690100
vn -0.577300 0.577400 -0.577400
vn 0.966000 -0.258500 -0.000000
vn 0.707100 -0.707100 -0.000000
vn 0.258400 -0.966000 -0.000000
vn 0.000000 -0.966000 -0.258500
vn 0.000000 -0.707100 -0.707100
vn 0.000000 -0.258500 -0.966000
vn 0.258500 0.000000 -0.966000
vn 0.707100 0.000000 -0.707100
vn 0.966000 -0.000000 -0.258500
vn -0.000000 -0.258500 0.966000
vn -0.000000 -0.707100 0.707100
vn -0.000000 -0.966000 0.258500
vn 0.966000 0.000000 0.258500
vn 0.707100 0.000000 0.707100
vn 0.258500 -0.000000 0.966000
vn -0.966000 -0.258500 -0.000000
vn -0.707100 -0.707100 -0.000000
vn -0.258500 -0.966000 -0.000000
vn -0.258500 0.000000 0.966000
vn -0.707100 -0.000000 0.707100
vn -0.966000 -0.000000 0.258500
vn -0.966000 -0.000000 -0.258500
vn -0.707100 0.000000 -0.707100
vn -0.258500 0.000000 -0.966000
vn 0.258400 0.966000 0.000000
vn 0.707100 0.707100 0.000000
vn 0.966000 0.258500 0.000000
vn 0.000000 0.258500 -0.966000
vn 0.000000 0.707100 -0.707100
vn 0.000000 0.966000 -0.258400
vn -0.000000 0.966000 0.258400
vn -0.000000 0.707100 0.707100
vn -0.000000 0.258500 0.966000
vn -0.258500 0.966000 -0.000000
vn -0.707100 0.707100 -0.000000
vn -0.966000 0.258500 -0.000000
vn 0.000000 -1.000000 0.000000
vn 0.935300 -0.250200 -0.250200
vn 0.250200 -0.935300 -0.250200
vn 0.250200 -0.250200 -0.935300
vn 0.935300 -0.250200 0.250200
vn 0.250200 -0.250200 0.935300
vn 0.250200 -0.935300 0.250200
vn -0.250200 -0.250200 0.935300
vn -0.935300 -0.250200 0.250200
vn -0.250200 -0.935300 0.250200
vn -0.250200 -0.250200 -0.935300
vn -0.250200 -0.935300 -0.250200
vn -0.935300 -0.250200 -0.250200
vn 0.250200 0.250200 -0.935300
vn 0.250200 0.935300 -0.250200
vn 0.935300 0.250200 -0.250200
vn 0.250200 0.250200 0.935300
vn 0.935300 0.250200 0.250200
vn 0.250200 0.935300 0.250200
vn -0.935300 0.250200 0.250200
vn -0.250200 0.250200 0.935300
vn -0.250200 0.935300 0.250200
vn -0.935300 0.250200 -0.250200
vn -0.250200 0.935300 -0.250200
vn -0.250200 0.250200 -0.935300
vn 0.258500 -0.966000 0.000000
vn 0.258500 0.966000 0.000000
vn 0.000000 0.966000 -0.258500
vn -0.258400 0.966000 0.000000
vn -0.966000 0.258400 -0.000000
usemtl Material
s off
f 49/1/1 3/2/1 37/3/1
f 61/2/2 74/3/2 25/4/2
f 26/4/3 73/1/3 85/2/3
f 86/2/4 75/3/4 63/4/4
f 51/2/5 62/3/5 13/4/5
f 4/2/6 6/3/6 5/4/6
f 4/1/7 8/2/7 9/3/7
f 7/2/8 9/3/8 8/4/8
f 11/2/9 12/3/9 9/4/9
f 10/2/10 12/3/10 11/4/10
f 5/2/11 6/3/11 12/4/11
f 6/1/12 9/2/12 12/3/12
f 16/2/13 18/3/13 17/4/13
f 16/1/14 20/2/14 21/3/14
f 19/2/15 21/3/15 20/4/15
f 19/1/16 23/2/16 24/3/16
f 22/2/17 24/3/17 23/4/17
f 17/2/18 18/3/18 24/4/18
f 18/1/19 21/2/19 24/3/19
f 28/2/20 30/3/20 29/4/20
f 32/2/21 33/3/21 30/4/21
f 31/2/22 33/3/22 32/4/22
f 35/2/23 36/3/23 33/4/23
f 34/2/24 36/3/24 35/4/24
f 34/1/25 29/2/25 30/3/25
f 30/1/26 33/2/26 36/3/26
f 40/2/27 42/3/27 41/4/27
f 40/1/28 44/2/28 45/3/28
f 43/2/29 45/3/29 44/4/29
f 43/1/30 47/2/30 48/3/30
f 46/2/31 48/3/31 47/4/31
f 41/2/32 42/3/32 48/4/32
f 42/1/33 45/2/33 48/3/33
f 52/2/34 54/3/34 53/4/34
f 52/1/35 56/2/35 57/3/35
f 55/2/36 57/3/36 56/4/36
f 59/2/37 60/3/37 57/4/37
f 58/2/38 60/3/38 59/4/38
f 53/2/39 54/3/39 60/4/39
f 54/1/40 57/2/40 60/3/40
f 64/2/41 66/3/41 65/4/41
f 68/2/42 69/3/42 66/4/42
f 67/2/43 69/3/43 68/4/43
f 71/2/44 72/3/44 69/4/44
f 70/2/45 72/3/45 71/4/45
f 65/2/46 66/3/46 72/4/46
f 66/1/47 69/2/47 72/3/47
f 76/2/48 78/3/48 77/4/48
f 76/1/49 80/2/49 81/3/49
f 79/2/50 81/3/50 80/4/50
f 79/1/51 83/2/51 84/3/51
f 82/2/52 84/3/52 83/4/52
f 77/2/53 78/3/53 84/4/53
f 78/1/54 81/2/54 84/3/54
f 88/2/55 90/3/55 89/4/55
f 88/1/56 92/2/56 93/3/56
f 91/2/57 93/3/57 92/4/57
f 95/2/58 96/3/58 93/4/58
f 94/2/59 96/3/59 95/4/59
f 94/1/60 89/2/60 90/3/60
f 90/1/61 93/2/61 96/3/61
f 13/2/62 17/3/62 4/4/62
f 17/2/63 22/3/63 8/4/63
f 8/1/64 22/2/64 15/3/64
f 38/2/65 44/3/65 7/4/65
f 44/2/66 40/3/66 11/4/66
f 11/1/67 40/2/67 37/3/67
f 49/2/68 53/3/68 10/4/68
f 53/2/69 58/3/69 5/4/69
f 58/2/70 51/3/70 1/4/70
f 25/2/71 29/3/71 19/4/71
f 29/2/72 34/3/72 23/4/72
f 23/1/73 34/2/73 27/3/73
f 13/1/74 62/2/74 68/3/74
f 68/2/75 64/3/75 20/4/75
f 64/2/76 61/3/76 14/4/76
f 26/1/77 39/2/77 47/3/77
f 47/2/78 43/3/78 35/4/78
f 43/2/79 38/3/79 27/4/79
f 25/1/80 74/2/80 80/3/80
f 80/2/81 76/3/81 32/4/81
f 76/2/82 73/3/82 26/4/82
f 85/2/83 89/3/83 46/4/83
f 89/2/84 94/3/84 41/4/84
f 94/2/85 87/3/85 37/4/85
f 63/2/86 71/3/86 55/4/86
f 71/2/87 67/3/87 59/4/87
f 59/1/88 67/2/88 62/3/88
f 49/1/89 87/2/89 95/3/89
f 52/1/90 95/2/90 91/3/90
f 91/2/91 86/3/91 50/4/91
f 63/1/92 75/2/92 83/3/92
f 83/2/93 79/3/93 65/4/93
f 79/2/94 74/3/94 61/4/94
f 86/2/95 92/3/95 82/4/95
f 82/1/96 92/2/96 88/3/96
f 88/2/97 85/3/97 73/4/97
f 15/2/98 27/3/98 38/4/98
f 87/4/1 49/1/1 37/3/1
f 14/1/2 61/2/2 25/4/2
f 39/3/3 26/4/3 85/2/3
f 50/1/4 86/2/4 63/4/4
f 1/1/5 51/2/5 13/4/5
f 1/1/99 4/2/99 5/4/99
f 6/4/7 4/1/7 9/3/7
f 2/1/100 7/2/100 8/4/100
f 7/1/9 11/2/9 9/4/9
f 3/1/101 10/2/101 11/4/101
f 10/1/11 5/2/11 12/4/11
f 13/1/102 16/2/102 17/4/102
f 18/4/14 16/1/14 21/3/14
f 14/1/103 19/2/103 20/4/103
f 21/4/16 19/1/16 24/3/16
f 15/1/104 22/2/104 23/4/104
f 22/1/18 17/2/18 24/4/18
f 25/1/105 28/2/105 29/4/105
f 28/1/21 32/2/21 30/4/21
f 26/1/106 31/2/106 32/4/106
f 31/1/23 35/2/23 33/4/23
f 27/1/107 34/2/107 35/4/107
f 36/4/25 34/1/25 30/3/25
f 37/1/108 40/2/108 41/4/108
f 42/4/28 40/1/28 45/3/28
f 38/1/109 43/2/109 44/4/109
f 45/4/30 43/1/30 48/3/30
f 39/1/110 46/2/110 47/4/110
f 46/1/32 41/2/32 48/4/32
f 49/1/111 52/2/111 53/4/111
f 54/4/35 52/1/35 57/3/35
f 50/1/112 55/2/112 56/4/112
f 55/1/37 59/2/37 57/4/37
f 51/1/113 58/2/113 59/4/113
f 58/1/39 53/2/39 60/4/39
f 61/1/114 64/2/114 65/4/114
f 64/1/42 68/2/42 66/4/42
f 62/1/115 67/2/115 68/4/115
f 67/1/44 71/2/44 69/4/44
f 63/1/116 70/2/116 71/4/116
f 70/1/46 65/2/46 72/4/46
f 73/1/117 76/2/117 77/4/117
f 78/4/49 76/1/49 81/3/49
f 74/1/118 79/2/118 80/4/118
f 81/4/51 79/1/51 84/3/51
f 75/1/119 82/2/119 83/4/119
f 82/1/53 77/2/53 84/4/53
f 85/1/120 88/2/120 89/4/120
f 90/4/56 88/1/56 93/3/56
f 86/1/121 91/2/121 92/4/121
f 91/1/58 95/2/58 93/4/58
f 87/1/122 94/2/122 95/4/122
f 96/4/60 94/1/60 90/3/60
f 1/1/62 13/2/62 4/4/62
f 4/1/63 17/2/63 8/4/63
f 2/4/123 8/1/123 15/3/123
f 2/1/65 38/2/65 7/4/65
f 7/1/66 44/2/66 11/4/66
f 3/4/67 11/1/67 37/3/67
f 3/1/68 49/2/68 10/4/68
f 10/1/69 53/2/69 5/4/69
f 5/1/70 58/2/70 1/4/70
f 14/1/71 25/2/71 19/4/71
f 19/1/72 29/2/72 23/4/72
f 15/4/73 23/1/73 27/3/73
f 16/4/74 13/1/74 68/3/74
f 16/1/75 68/2/75 20/4/75
f 20/1/76 64/2/76 14/4/76
f 31/4/77 26/1/77 47/3/77
f 31/1/78 47/2/78 35/4/78
f 35/1/79 43/2/79 27/4/79
f 28/4/80 25/1/80 80/3/80
f 28/1/81 80/2/81 32/4/81
f 32/1/82 76/2/82 26/4/82
f 39/1/83 85/2/83 46/4/83
f 46/1/84 89/2/84 41/4/84
f 41/1/85 94/2/85 37/4/85
f 50/1/124 63/2/124 55/4/124
f 55/1/87 71/2/87 59/4/87
f 51/4/88 59/1/88 62/3/88
f 52/4/89 49/1/89 95/3/89
f 56/4/90 52/1/90 91/3/90
f 56/1/125 91/2/125 50/4/125
f 70/4/92 63/1/92 83/3/92
f 70/1/93 83/2/93 65/4/93
f 65/1/94 79/2/94 61/4/94
f 75/1/126 86/2/126 82/4/126
f 77/4/96 82/1/96 88/3/96
f 77/1/127 88/2/127 73/4/127
f 2/1/98 15/2/98 38/4/98
