# Blender v2.77 (sub 0) OBJ File: ''
# www.blender.org
mtllib pyramid.mtl
o Cube_Cube.001
v -0.937786 0.000000 1.000000
v -1.000000 0.000000 0.937786
v -0.957011 0.000000 0.996955
v -0.974355 0.000000 0.988118
v -0.988118 0.000000 0.974355
v -0.996955 0.000000 0.957011
v 0.000000 1.875572 0.062214
v 0.062214 1.875572 -0.000000
v -0.000000 1.875572 -0.062214
v -0.062214 1.875572 0.000000
v 0.016463 1.880835 0.056277
v 0.032373 1.883711 0.046118
v -0.016463 1.880835 0.056277
v 0.000047 1.894856 0.043542
v 0.016062 1.904577 0.030646
v -0.032373 1.883711 0.046118
v -0.016040 1.904501 0.030517
v 0.000000 1.918786 0.015378
v 0.056277 1.880835 -0.016463
v 0.046118 1.883711 -0.032373
v 0.056277 1.880835 0.016463
v 0.043542 1.894856 -0.000047
v 0.030646 1.904577 -0.016062
v 0.046118 1.883711 0.032373
v 0.030517 1.904501 0.016040
v 0.015378 1.918786 -0.000000
v -0.016463 1.880835 -0.056277
v -0.032373 1.883711 -0.046118
v 0.016463 1.880835 -0.056277
v -0.000047 1.894856 -0.043542
v -0.016062 1.904577 -0.030646
v 0.032373 1.883711 -0.046118
v 0.016040 1.904501 -0.030517
v -0.000000 1.918786 -0.015378
v -0.056277 1.880835 0.016463
v -0.046118 1.883711 0.032373
v -0.056277 1.880835 -0.016463
v -0.043542 1.894856 0.000047
v -0.030646 1.904577 0.016062
v -0.046118 1.883711 -0.032373
v -0.030517 1.904501 -0.016040
v -0.015378 1.918786 -0.000000
v -1.000000 0.000000 -0.937786
v -0.937786 0.000000 -1.000000
v -0.996955 0.000000 -0.957011
v -0.988118 0.000000 -0.974355
v -0.974354 0.000000 -0.988118
v -0.957011 0.000000 -0.996955
v 1.000000 0.000000 0.937786
v 0.937786 0.000000 1.000000
v 0.996955 0.000000 0.957011
v 0.988118 0.000000 0.974355
v 0.974354 0.000000 0.988118
v 0.957011 0.000000 0.996955
v 0.937786 0.000000 -1.000000
v 1.000000 0.000000 -0.937786
v 0.957011 0.000000 -0.996955
v 0.974355 0.000000 -0.988118
v 0.988118 0.000000 -0.974354
v 0.996955 0.000000 -0.957011
vt 0.0000 0.0156
vt 0.0311 0.0000
vt 1.0000 0.0156
vt 0.5000 0.7656
vt 0.9689 1.0000
vt 0.0311 1.0000
vt 0.4689 0.7500
vt 0.0000 0.9844
vt 0.0000 0.5156
vt 0.5311 0.7500
vt 1.0000 0.5156
vt 1.0000 0.9844
vt 0.5218 0.7500
vt 0.5281 0.7459
vt 0.5231 0.7581
vt 0.5281 0.7541
vt 0.5080 0.7576
vt 0.5153 0.7540
vt 0.5153 0.7460
vt 0.5231 0.7419
vt 0.5077 0.7500
vt 0.5000 0.7609
vt 0.5082 0.7641
vt 0.4838 0.7615
vt 0.4918 0.7641
vt 0.4847 0.7540
vt 0.4920 0.7577
vt 0.5162 0.7615
vt 0.5000 0.7538
vt 0.4782 0.7500
vt 0.4719 0.7541
vt 0.4769 0.7419
vt 0.4719 0.7459
vt 0.4920 0.7424
vt 0.4847 0.7460
vt 0.4769 0.7581
vt 0.4923 0.7500
vt 0.5000 0.7344
vt 0.5000 0.7391
vt 0.4918 0.7359
vt 0.5162 0.7385
vt 0.5082 0.7359
vt 0.5080 0.7423
vt 0.4838 0.7385
vt 0.5000 0.7462
vt 0.9985 0.5107
vt 0.9941 0.5064
vt 0.9872 0.5030
vt 0.9785 0.5008
vt 0.9689 0.5000
vt 0.0015 0.5107
vt 0.0059 0.5064
vt 0.0215 0.5008
vt 0.0311 0.5000
vt 0.0215 0.9992
vt 0.0128 0.9970
vt 0.0015 0.9893
vt 0.9985 0.9893
vt 0.9941 0.9936
vt 0.9785 0.9992
vt 1.0000 0.4844
vt 0.9985 0.4893
vt 0.9941 0.4936
vt 0.9872 0.4970
vt 0.9785 0.4992
vt 0.0215 0.4992
vt 0.0128 0.4970
vt 0.0059 0.4936
vt 0.0015 0.4893
vt 0.0000 0.4844
vt 0.0015 0.0107
vt 0.0059 0.0064
vt 0.0128 0.0030
vt 0.0215 0.0008
vt 0.9689 0.0000
vt 0.9785 0.0008
vt 0.9872 0.0030
vt 0.9941 0.0064
vt 0.9985 0.0107
vt 0.0128 0.5030
vt 0.0059 0.9936
vt 0.9872 0.9970
vn 0.0000 -1.0000 0.0000
vn 0.8944 0.4472 0.0000
vn 0.0000 0.4472 -0.8944
vn 0.0000 0.4472 0.8944
vn -0.0367 0.6952 0.7179
vn 0.2252 0.7863 0.5753
vn 0.4855 0.7329 0.4766
vn -0.2845 0.7083 0.6461
vn -0.0043 0.8011 0.5985
vn 0.3859 0.8418 0.3775
vn 0.7179 0.6952 0.0367
vn 0.5754 0.7863 -0.2252
vn 0.4766 0.7329 -0.4855
vn 0.6461 0.7083 0.2845
vn 0.5985 0.8011 0.0043
vn 0.3775 0.8418 -0.3859
vn 0.0367 0.6952 -0.7179
vn -0.2252 0.7863 -0.5753
vn -0.4855 0.7329 -0.4766
vn 0.2845 0.7083 -0.6461
vn 0.0043 0.8011 -0.5985
vn -0.3859 0.8418 -0.3775
vn -0.7179 0.6952 -0.0367
vn -0.5754 0.7863 0.2252
vn -0.4766 0.7329 0.4855
vn -0.6461 0.7083 -0.2845
vn -0.5985 0.8011 -0.0043
vn -0.3775 0.8418 0.3859
vn 0.0000 1.0000 -0.0000
vn -0.1358 0.4967 0.8573
vn -0.3767 0.5581 0.7393
vn -0.5773 0.5774 0.5773
vn -0.7393 0.5581 0.3767
vn -0.8573 0.4967 0.1358
vn -0.1477 0.5004 -0.8531
vn -0.3729 0.5574 -0.7418
vn -0.5773 0.5774 -0.5773
vn -0.7418 0.5574 -0.3729
vn -0.8531 0.5004 -0.1477
vn 0.8531 0.5004 -0.1477
vn 0.7418 0.5574 -0.3729
vn 0.5773 0.5774 -0.5773
vn 0.3729 0.5574 -0.7418
vn 0.1477 0.5004 -0.8531
vn 0.1477 0.5004 0.8531
vn 0.3729 0.5574 0.7418
vn 0.5773 0.5774 0.5773
vn 0.7418 0.5574 0.3729
vn 0.8531 0.5004 0.1477
vn -0.8944 0.4472 0.0000
vn 0.0367 0.6951 0.7180
vn 0.1737 0.6706 0.7212
vn 0.4789 0.7357 0.4789
vn -0.1044 0.7332 0.6719
vn -0.0045 0.7297 0.6838
vn 0.3845 0.8392 0.3845
vn 0.7180 0.6951 -0.0367
vn 0.7212 0.6706 -0.1737
vn 0.4789 0.7357 -0.4789
vn 0.6719 0.7332 0.1044
vn 0.6838 0.7297 0.0045
vn 0.3845 0.8392 -0.3845
vn -0.0367 0.6951 -0.7180
vn -0.1737 0.6706 -0.7212
vn -0.4789 0.7357 -0.4789
vn 0.1044 0.7332 -0.6719
vn 0.0045 0.7297 -0.6838
vn -0.3845 0.8392 -0.3845
vn -0.7180 0.6951 0.0367
vn -0.7212 0.6706 0.1737
vn -0.4789 0.7357 0.4789
vn -0.6719 0.7332 -0.1044
vn -0.6838 0.7297 -0.0045
vn -0.3845 0.8392 0.3845
vn -0.1477 0.5004 0.8531
vn -0.3729 0.5574 0.7418
vn -0.7418 0.5574 0.3729
vn -0.8531 0.5004 0.1477
vn -0.1358 0.4967 -0.8573
vn -0.3767 0.5581 -0.7393
vn -0.7393 0.5581 -0.3767
vn -0.8573 0.4966 -0.1358
vn 0.8573 0.4966 -0.1358
vn 0.7393 0.5581 -0.3767
vn 0.3767 0.5581 -0.7393
vn 0.1358 0.4967 -0.8573
vn 0.1358 0.4967 0.8573
vn 0.3767 0.5581 0.7393
vn 0.7393 0.5581 0.3767
vn 0.8573 0.4966 0.1358
usemtl None
s off
f 55/1/1 56/2/1 50/3/1
f 8/4/2 49/5/2 56/6/2
f 9/7/3 55/8/3 44/9/3
f 7/10/4 1/11/4 50/12/4
f 7/10/5 14/13/5 13/14/5
f 12/15/6 14/13/6 11/16/6
f 12/15/7 25/17/7 15/18/7
f 13/14/8 17/19/8 16/20/8
f 15/18/9 17/19/9 14/13/9
f 25/17/10 18/21/10 15/18/10
f 8/4/11 22/22/11 21/23/11
f 20/24/12 22/22/12 19/25/12
f 20/24/13 33/26/13 23/27/13
f 21/23/14 25/17/14 24/28/14
f 23/27/15 25/17/15 22/22/15
f 33/26/16 26/29/16 23/27/16
f 9/7/17 30/30/17 29/31/17
f 28/32/18 30/30/18 27/33/18
f 28/32/19 41/34/19 31/35/19
f 29/31/20 33/26/20 32/36/20
f 31/35/21 33/26/21 30/30/21
f 41/34/22 34/37/22 31/35/22
f 10/38/23 38/39/23 37/40/23
f 36/41/24 38/39/24 35/42/24
f 36/41/25 17/19/25 39/43/25
f 37/40/26 41/34/26 40/44/26
f 39/43/27 41/34/27 38/39/27
f 17/19/28 42/45/28 39/43/28
f 18/21/29 34/37/29 42/45/29
f 1/11/30 13/14/30 3/46/30
f 3/46/31 16/20/31 4/47/31
f 16/20/32 5/48/32 4/47/32
f 36/41/33 6/49/33 5/48/33
f 35/42/34 2/50/34 6/49/34
f 44/9/35 27/33/35 9/7/35
f 48/51/36 28/32/36 27/33/36
f 47/52/37 40/44/37 28/32/37
f 40/44/38 45/53/38 37/40/38
f 37/40/39 43/54/39 10/38/39
f 56/6/40 19/25/40 8/4/40
f 60/55/41 20/24/41 19/25/41
f 59/56/42 32/36/42 20/24/42
f 32/36/43 57/57/43 29/31/43
f 29/31/44 55/8/44 9/7/44
f 50/12/45 11/16/45 7/10/45
f 54/58/46 12/15/46 11/16/46
f 53/59/47 24/28/47 12/15/47
f 24/28/48 51/60/48 21/23/48
f 21/23/49 49/5/49 8/4/49
f 10/38/50 43/54/50 2/50/50
f 50/3/1 1/61/1 2/50/1
f 3/62/1 4/63/1 5/64/1
f 5/64/1 6/65/1 2/50/1
f 2/50/1 43/54/1 50/3/1
f 45/66/1 46/67/1 47/68/1
f 47/68/1 48/69/1 45/66/1
f 44/70/1 55/1/1 50/3/1
f 57/71/1 58/72/1 59/73/1
f 59/73/1 60/74/1 56/2/1
f 56/2/1 49/75/1 50/3/1
f 51/76/1 52/77/1 53/78/1
f 53/78/1 54/79/1 51/76/1
f 1/61/1 3/62/1 2/50/1
f 5/64/1 2/50/1 3/62/1
f 45/66/1 48/69/1 44/70/1
f 55/1/1 57/71/1 59/73/1
f 59/73/1 56/2/1 55/1/1
f 51/76/1 54/79/1 50/3/1
f 50/3/1 43/54/1 44/70/1
f 45/66/1 44/70/1 43/54/1
f 49/75/1 51/76/1 50/3/1
f 7/10/51 11/16/51 14/13/51
f 12/15/52 15/18/52 14/13/52
f 12/15/53 24/28/53 25/17/53
f 13/14/54 14/13/54 17/19/54
f 15/18/55 18/21/55 17/19/55
f 25/17/56 26/29/56 18/21/56
f 8/4/57 19/25/57 22/22/57
f 20/24/58 23/27/58 22/22/58
f 20/24/59 32/36/59 33/26/59
f 21/23/60 22/22/60 25/17/60
f 23/27/61 26/29/61 25/17/61
f 33/26/62 34/37/62 26/29/62
f 9/7/63 27/33/63 30/30/63
f 28/32/64 31/35/64 30/30/64
f 28/32/65 40/44/65 41/34/65
f 29/31/66 30/30/66 33/26/66
f 31/35/67 34/37/67 33/26/67
f 41/34/68 42/45/68 34/37/68
f 10/38/69 35/42/69 38/39/69
f 36/41/70 39/43/70 38/39/70
f 36/41/71 16/20/71 17/19/71
f 37/40/72 38/39/72 41/34/72
f 39/43/73 42/45/73 41/34/73
f 17/19/74 18/21/74 42/45/74
f 18/21/29 26/29/29 34/37/29
f 1/11/75 7/10/75 13/14/75
f 3/46/76 13/14/76 16/20/76
f 16/20/32 36/41/32 5/48/32
f 36/41/77 35/42/77 6/49/77
f 35/42/78 10/38/78 2/50/78
f 44/9/79 48/51/79 27/33/79
f 48/51/80 47/52/80 28/32/80
f 47/52/37 46/80/37 40/44/37
f 40/44/81 46/80/81 45/53/81
f 37/40/82 45/53/82 43/54/82
f 56/6/83 60/55/83 19/25/83
f 60/55/84 59/56/84 20/24/84
f 59/56/42 58/81/42 32/36/42
f 32/36/85 58/81/85 57/57/85
f 29/31/86 57/57/86 55/8/86
f 50/12/87 54/58/87 11/16/87
f 54/58/88 53/59/88 12/15/88
f 53/59/47 52/82/47 24/28/47
f 24/28/89 52/82/89 51/60/89
f 21/23/90 51/60/90 49/5/90
